<mxfile host="drawio-plugin" modified="2022-08-17T19:39:52.964Z" agent="5.0 (Windows NT 6.2; Win64; x64) AppleWebKit/537.36 (KHTML, like Gecko) Chrome/87.0.4280.141 Safari/537.36" etag="i32u7JtkEwOfTgNC3X4h" version="15.5.4" type="embed"><diagram id="JEqR1ZIYFnEfZMCUsHCR" name="Page-1"><mxGraphModel dx="659" dy="424" grid="1" gridSize="10" guides="1" tooltips="1" connect="1" arrows="1" fold="1" page="1" pageScale="1" pageWidth="827" pageHeight="1169" math="0" shadow="0"><root><mxCell id="0"/><mxCell id="1" parent="0"/><mxCell id="wrNmaZZdg3NfsRJvNCuY-1" value="&lt;font style=&quot;font-size: 10px&quot;&gt;websocket心跳链路&lt;/font&gt;" style="swimlane;html=1;childLayout=stackLayout;startSize=20;rounded=0;shadow=0;labelBackgroundColor=none;strokeWidth=1;fontFamily=Verdana;fontSize=8;align=center;" parent="1" vertex="1"><mxGeometry x="80" y="40" width="420" height="390" as="geometry"/></mxCell><mxCell id="wrNmaZZdg3NfsRJvNCuY-2" value="websocket后端" style="swimlane;html=1;startSize=20;" parent="wrNmaZZdg3NfsRJvNCuY-1" vertex="1"><mxGeometry y="20" width="205" height="370" as="geometry"/></mxCell><mxCell id="19" value="&lt;font style=&quot;font-size: 12px&quot;&gt;&lt;pre style=&quot;background-color: rgb(255 , 255 , 255) ; font-family: &amp;#34;jetbrains mono&amp;#34; , monospace&quot;&gt;设置心跳间隔&lt;/pre&gt;&lt;/font&gt;" style="rounded=1;whiteSpace=wrap;html=1;shadow=0;labelBackgroundColor=none;strokeWidth=1;fontFamily=Verdana;fontSize=8;align=center;" parent="wrNmaZZdg3NfsRJvNCuY-2" vertex="1"><mxGeometry x="40" y="70" width="125" height="45" as="geometry"/></mxCell><mxCell id="31" value="&lt;font&gt;&lt;pre style=&quot;background-color: rgb(255 , 255 , 255) ; font-family: &amp;#34;jetbrains mono&amp;#34; , monospace&quot;&gt;&lt;span style=&quot;font-size: 12px&quot;&gt;每隔一段时间发送心跳&lt;br/&gt;&lt;/span&gt;&lt;font style=&quot;font-size: 10px&quot;&gt;WriteMessage(websocket.PingMessage, nil)&lt;/font&gt;&lt;span style=&quot;font-size: 12px&quot;&gt;&lt;br/&gt;&lt;/span&gt;&lt;/pre&gt;&lt;/font&gt;" style="rounded=1;whiteSpace=wrap;html=1;shadow=0;labelBackgroundColor=none;strokeWidth=1;fontFamily=Verdana;fontSize=8;align=center;" parent="wrNmaZZdg3NfsRJvNCuY-2" vertex="1"><mxGeometry x="14.38" y="150" width="176.25" height="50" as="geometry"/></mxCell><mxCell id="30" style="edgeStyle=orthogonalEdgeStyle;rounded=0;orthogonalLoop=1;jettySize=auto;html=1;exitX=0.5;exitY=1;exitDx=0;exitDy=0;fontSize=12;fontColor=#000000;" parent="wrNmaZZdg3NfsRJvNCuY-2" source="19" target="31" edge="1"><mxGeometry relative="1" as="geometry"><mxPoint x="102.16666666666674" y="145" as="targetPoint"/></mxGeometry></mxCell><mxCell id="37" value="&lt;font&gt;&lt;span style=&quot;font-size: 12px&quot;&gt;刷新心跳间隔时间&lt;/span&gt;&lt;br&gt;&lt;/font&gt;" style="rounded=1;whiteSpace=wrap;html=1;shadow=0;labelBackgroundColor=none;strokeWidth=1;fontFamily=Verdana;fontSize=8;align=center;" parent="wrNmaZZdg3NfsRJvNCuY-2" vertex="1"><mxGeometry x="33.75" y="250" width="137.5" height="40" as="geometry"/></mxCell><mxCell id="wrNmaZZdg3NfsRJvNCuY-49" value="user" style="swimlane;html=1;startSize=20;" parent="wrNmaZZdg3NfsRJvNCuY-1" vertex="1"><mxGeometry x="205" y="20" width="215" height="370" as="geometry"/></mxCell><mxCell id="48" value="Actor1" style="shape=umlActor;verticalLabelPosition=bottom;verticalAlign=top;html=1;outlineConnect=0;" parent="wrNmaZZdg3NfsRJvNCuY-49" vertex="1"><mxGeometry x="114" y="145" width="30" height="60" as="geometry"/></mxCell><mxCell id="62" value="ping" style="text;html=1;align=center;verticalAlign=middle;resizable=0;points=[];autosize=1;strokeColor=none;fillColor=none;fontSize=10;" vertex="1" parent="wrNmaZZdg3NfsRJvNCuY-49"><mxGeometry x="20" y="150" width="30" height="20" as="geometry"/></mxCell><mxCell id="64" value="pong" style="text;html=1;align=center;verticalAlign=middle;resizable=0;points=[];autosize=1;strokeColor=none;fillColor=none;fontSize=10;" vertex="1" parent="wrNmaZZdg3NfsRJvNCuY-49"><mxGeometry x="15" y="220" width="40" height="20" as="geometry"/></mxCell><mxCell id="61" style="edgeStyle=orthogonalEdgeStyle;rounded=0;orthogonalLoop=1;jettySize=auto;html=1;exitX=1;exitY=0.5;exitDx=0;exitDy=0;fontSize=10;" edge="1" parent="1" source="31"><mxGeometry relative="1" as="geometry"><mxPoint x="380" y="234.8571428571429" as="targetPoint"/></mxGeometry></mxCell><mxCell id="63" value="" style="endArrow=classic;html=1;rounded=0;fontSize=10;entryX=1.004;entryY=0.664;entryDx=0;entryDy=0;entryPerimeter=0;" edge="1" parent="1" target="37"><mxGeometry width="50" height="50" relative="1" as="geometry"><mxPoint x="390" y="260" as="sourcePoint"/><mxPoint x="320" y="210" as="targetPoint"/></mxGeometry></mxCell></root></mxGraphModel></diagram></mxfile>